<svg width="573" height="455" viewBox="0 0 573 455" fill="none" xmlns="http://www.w3.org/2000/svg">
<line x1="70.5" y1="2.5" x2="70.5" y2="90.5" stroke="#1DFCFC" stroke-width="5" stroke-linecap="round" stroke-linejoin="round"/>
<line x1="70.5" y1="225.5" x2="70.5" y2="452.5" stroke="#1DFCFC" stroke-width="5" stroke-linecap="round" stroke-linejoin="round"/>
<circle cx="68" cy="161" r="65.5" stroke="#00FFFF" stroke-width="5"/>
<path d="M71.021 175.016C68.749 177.992 65.693 179.48 61.853 179.48C58.013 179.48 54.957 178.008 52.685 175.064C50.445 172.088 49.325 168.104 49.325 163.112C49.325 158.088 50.445 154.104 52.685 151.16C54.957 148.184 58.013 146.696 61.853 146.696C65.693 146.696 68.749 148.184 71.021 151.16C73.325 154.104 74.477 158.088 74.477 163.112C74.477 168.072 73.325 172.04 71.021 175.016ZM66.941 163.928C66.941 160.728 66.493 157.848 65.597 155.288C64.701 152.728 63.453 151.448 61.853 151.448C60.349 151.448 59.117 152.44 58.157 154.424C57.197 156.376 56.717 158.776 56.717 161.624C56.717 165.08 57.165 168.136 58.061 170.792C58.957 173.448 60.205 174.776 61.805 174.776C63.341 174.776 64.573 173.736 65.501 171.656C66.461 169.576 66.941 167 66.941 163.928ZM81.5915 179.48C80.3755 179.48 79.3355 179.064 78.4715 178.232C77.6395 177.368 77.2235 176.28 77.2235 174.968C77.2235 173.72 77.6715 172.664 78.5675 171.8C79.4635 170.936 80.5035 170.504 81.6875 170.504C82.8715 170.504 83.8795 170.936 84.7115 171.8C85.5755 172.664 86.0075 173.72 86.0075 174.968C86.0075 176.248 85.5595 177.32 84.6635 178.184C83.7675 179.048 82.7435 179.48 81.5915 179.48Z" fill="#00FFFF"/>
<path d="M178.356 130.632C177.972 129.312 177.516 127.62 176.988 125.556C176.46 123.468 176.148 122.256 176.052 121.92C174.564 127.104 173.724 130.008 173.532 130.632C174.684 130.68 175.596 130.704 176.268 130.704C177.204 130.704 177.9 130.68 178.356 130.632ZM175.8 134.268C174.816 134.268 173.748 134.22 172.596 134.124C170.964 138.06 169.98 140.568 169.644 141.648C168.804 141.528 168.192 141.432 167.808 141.36C167.424 141.288 166.98 141.168 166.476 141C165.972 140.808 165.624 140.568 165.432 140.28C165.24 139.992 165.144 139.632 165.144 139.2C165.144 138.696 165.552 137.472 166.368 135.528C167.208 133.584 168.324 130.896 169.716 127.464C171.108 124.032 172.284 120.672 173.244 117.384C174.372 117.216 175.296 117.132 176.016 117.132C178.032 117.132 179.328 118.008 179.904 119.76C181.68 125.232 182.952 128.952 183.72 130.92C185.592 135.792 186.864 138.888 187.536 140.208C186.408 140.976 185.292 141.36 184.188 141.36C182.772 141.36 181.86 140.904 181.452 139.992C181.188 139.368 180.828 138.48 180.372 137.328C179.94 136.176 179.532 135.132 179.148 134.196C177.276 134.244 176.16 134.268 175.8 134.268ZM188.157 132.468C188.157 129.996 188.841 127.896 190.209 126.168C191.577 124.416 193.281 123.54 195.321 123.54C196.665 123.54 198.021 123.948 199.389 124.764C199.437 123.228 199.461 122.016 199.461 121.128C199.461 118.512 199.365 116.376 199.173 114.72C200.277 114.408 201.081 114.252 201.585 114.252C203.817 114.252 204.933 115.02 204.933 116.556C204.933 117.972 204.873 120.696 204.753 124.728C204.657 128.76 204.609 131.508 204.609 132.972C204.609 136.764 204.837 139.38 205.293 140.82C204.141 141.108 203.205 141.252 202.485 141.252C201.477 141.252 200.757 141.072 200.325 140.712C199.893 140.328 199.605 139.812 199.461 139.164C198.837 139.812 198.105 140.34 197.265 140.748C196.449 141.156 195.669 141.36 194.925 141.36C193.077 141.36 191.481 140.52 190.137 138.84C188.817 137.16 188.157 135.036 188.157 132.468ZM199.245 127.752C198.525 127.224 197.781 126.96 197.013 126.96C195.933 126.96 195.081 127.44 194.457 128.4C193.833 129.336 193.521 130.584 193.521 132.144C193.521 133.872 193.833 135.3 194.457 136.428C195.081 137.532 195.849 138.084 196.761 138.084C197.817 138.084 198.669 137.724 199.317 137.004C199.269 132.06 199.245 128.976 199.245 127.752ZM207.739 132.468C207.739 129.996 208.423 127.896 209.791 126.168C211.159 124.416 212.863 123.54 214.903 123.54C216.247 123.54 217.603 123.948 218.971 124.764C219.019 123.228 219.043 122.016 219.043 121.128C219.043 118.512 218.947 116.376 218.755 114.72C219.859 114.408 220.663 114.252 221.167 114.252C223.399 114.252 224.515 115.02 224.515 116.556C224.515 117.972 224.455 120.696 224.335 124.728C224.239 128.76 224.191 131.508 224.191 132.972C224.191 136.764 224.419 139.38 224.875 140.82C223.723 141.108 222.787 141.252 222.067 141.252C221.059 141.252 220.339 141.072 219.907 140.712C219.475 140.328 219.187 139.812 219.043 139.164C218.419 139.812 217.687 140.34 216.847 140.748C216.031 141.156 215.251 141.36 214.507 141.36C212.659 141.36 211.063 140.52 209.719 138.84C208.399 137.16 207.739 135.036 207.739 132.468ZM218.827 127.752C218.107 127.224 217.363 126.96 216.595 126.96C215.515 126.96 214.663 127.44 214.039 128.4C213.415 129.336 213.103 130.584 213.103 132.144C213.103 133.872 213.415 135.3 214.039 136.428C214.663 137.532 215.431 138.084 216.343 138.084C217.399 138.084 218.251 137.724 218.899 137.004C218.851 132.06 218.827 128.976 218.827 127.752ZM255.9 140.856C255.132 141.024 254.388 141.108 253.668 141.108C251.628 141.108 250.248 140.544 249.528 139.416C248.592 137.952 247.524 136.152 246.324 134.016C244.116 130.056 242.472 127.212 241.392 125.484V133.692C241.392 136.74 241.644 139.056 242.148 140.64C241.452 140.952 240.552 141.108 239.448 141.108C238.248 141.108 237.396 140.94 236.892 140.604C236.388 140.244 236.136 139.584 236.136 138.624C236.136 138.24 236.148 137.364 236.172 135.996C236.22 134.628 236.244 133.524 236.244 132.684V125.484C236.244 121.62 236.016 118.956 235.56 117.492C236.712 117.156 237.756 116.988 238.692 116.988C240.42 116.988 241.716 117.516 242.58 118.572C244.332 120.756 246.96 124.932 250.464 131.1L250.428 125.484C250.428 122.196 250.344 119.46 250.176 117.276C251.184 117.108 251.928 117.024 252.408 117.024C254.76 117.024 255.936 117.72 255.936 119.112C255.936 119.208 255.888 120.228 255.792 122.172C255.696 124.092 255.648 125.52 255.648 126.456V132.612C255.648 135.924 255.732 138.672 255.9 140.856ZM267.999 123.54C269.775 123.54 271.311 123.984 272.607 124.872C273.903 125.76 274.551 127.08 274.551 128.832C274.551 132.384 272.007 134.16 266.919 134.16C266.463 134.16 265.635 134.136 264.435 134.088C264.435 135.456 264.771 136.452 265.443 137.076C266.139 137.7 266.991 138.012 267.999 138.012C269.775 138.012 271.155 137.436 272.139 136.284C272.691 136.548 273.135 136.908 273.471 137.364C273.831 137.796 274.011 138.24 274.011 138.696C274.011 139.416 273.579 139.992 272.715 140.424C271.875 140.856 271.047 141.12 270.231 141.216C269.439 141.312 268.671 141.36 267.927 141.36C265.287 141.36 263.127 140.64 261.447 139.2C259.767 137.736 258.927 135.516 258.927 132.54C258.927 130.572 259.383 128.892 260.295 127.5C261.231 126.084 262.359 125.076 263.679 124.476C265.023 123.852 266.463 123.54 267.999 123.54ZM267.711 126.96C266.847 126.96 266.091 127.356 265.443 128.148C264.795 128.916 264.459 130.056 264.435 131.568C265.107 131.52 265.575 131.484 265.839 131.46C266.127 131.412 266.523 131.328 267.027 131.208C267.555 131.088 267.927 130.932 268.143 130.74C268.383 130.524 268.599 130.236 268.791 129.876C268.983 129.492 269.079 129.024 269.079 128.472C269.079 128.088 268.947 127.74 268.683 127.428C268.419 127.116 268.095 126.96 267.711 126.96ZM288.814 123.54C289.798 123.54 290.53 123.696 291.01 124.008C291.49 124.296 291.73 124.8 291.73 125.52C291.73 125.952 291.682 126.408 291.586 126.888C293.17 130.032 294.25 132.996 294.826 135.78C296.266 131.364 296.986 127.836 296.986 125.196C296.986 124.812 296.95 124.44 296.878 124.08C297.67 123.72 298.498 123.54 299.362 123.54C300.346 123.54 301.078 123.696 301.558 124.008C302.038 124.296 302.278 124.8 302.278 125.52C302.278 126.912 301.75 129.144 300.694 132.216C299.662 135.264 298.618 137.556 297.562 139.092C296.674 140.436 295.33 141.108 293.53 141.108C292.786 141.108 292.042 141 291.298 140.784C290.842 138.528 290.29 136.128 289.642 133.584C288.802 135.912 287.926 137.748 287.014 139.092C286.126 140.436 284.782 141.108 282.982 141.108C282.238 141.108 281.494 141 280.75 140.784C280.222 138.12 279.37 135.096 278.194 131.712C277.018 128.304 276.034 126.144 275.242 125.232C276.346 124.224 277.498 123.72 278.698 123.72C279.994 123.72 280.954 124.44 281.578 125.88C282.658 129.144 283.558 132.444 284.278 135.78C285.718 131.364 286.438 127.836 286.438 125.196C286.438 124.812 286.402 124.44 286.33 124.08C287.098 123.72 287.926 123.54 288.814 123.54ZM325.877 123.072C325.493 122.376 324.785 121.776 323.753 121.272C322.721 120.744 321.725 120.48 320.765 120.48C319.973 120.48 319.325 120.696 318.821 121.128C318.341 121.536 318.101 122.172 318.101 123.036C318.101 123.804 318.377 124.452 318.929 124.98C319.505 125.508 320.201 125.904 321.017 126.168C321.857 126.408 322.769 126.72 323.753 127.104C324.737 127.488 325.637 127.896 326.453 128.328C327.293 128.76 327.989 129.432 328.541 130.344C329.117 131.256 329.405 132.36 329.405 133.656C329.405 135.072 329.129 136.296 328.577 137.328C328.049 138.36 327.317 139.164 326.381 139.74C325.445 140.292 324.437 140.7 323.357 140.964C322.301 141.228 321.161 141.36 319.937 141.36C317.729 141.36 315.821 141.048 314.213 140.424C312.629 139.8 311.837 138.984 311.837 137.976C311.837 137.232 312.041 136.632 312.449 136.176C312.857 135.72 313.553 135.228 314.537 134.7C315.137 135.54 316.037 136.248 317.237 136.824C318.437 137.376 319.601 137.652 320.729 137.652C321.689 137.652 322.469 137.424 323.069 136.968C323.669 136.512 323.969 135.804 323.969 134.844C323.969 133.932 323.573 133.2 322.781 132.648C322.013 132.096 321.077 131.652 319.973 131.316C318.869 130.98 317.765 130.584 316.661 130.128C315.557 129.648 314.609 128.868 313.817 127.788C313.049 126.708 312.665 125.316 312.665 123.612C312.665 122.388 312.929 121.32 313.457 120.408C313.985 119.496 314.693 118.788 315.581 118.284C316.493 117.756 317.477 117.372 318.533 117.132C319.613 116.892 320.777 116.772 322.025 116.772C323.993 116.772 325.685 117.06 327.101 117.636C328.517 118.212 329.225 119.016 329.225 120.048C329.225 120.672 328.925 121.26 328.325 121.812C327.749 122.364 326.933 122.784 325.877 123.072ZM340.596 137.94C341.34 137.94 342.036 137.76 342.684 137.4C343.356 137.016 343.812 136.5 344.052 135.852C345.132 136.236 345.84 136.608 346.176 136.968C346.512 137.328 346.68 137.76 346.68 138.264C346.68 139.248 346.104 140.016 344.952 140.568C343.8 141.096 342.3 141.36 340.452 141.36C337.764 141.36 335.604 140.616 333.972 139.128C332.34 137.616 331.524 135.516 331.524 132.828C331.524 131.244 331.788 129.84 332.316 128.616C332.868 127.392 333.576 126.42 334.44 125.7C335.304 124.98 336.24 124.44 337.248 124.08C338.256 123.72 339.276 123.54 340.308 123.54C341.82 123.54 343.26 123.852 344.628 124.476C346.02 125.1 346.716 125.964 346.716 127.068C346.716 128.532 345.54 129.408 343.188 129.696C342.972 128.88 342.588 128.232 342.036 127.752C341.484 127.272 340.872 127.032 340.2 127.032C339.312 127.032 338.544 127.488 337.896 128.4C337.248 129.288 336.924 130.608 336.924 132.36C336.924 136.08 338.148 137.94 340.596 137.94ZM351.957 114.252C352.869 114.252 353.577 114.408 354.081 114.72C354.585 115.032 354.837 115.644 354.837 116.556C354.837 116.7 354.789 117.756 354.693 119.724C354.621 121.692 354.585 123.168 354.585 124.152V125.736C356.097 124.296 357.813 123.576 359.733 123.576C361.365 123.576 362.709 124.044 363.765 124.98C364.821 125.916 365.349 127.248 365.349 128.976C365.349 129.024 365.325 129.888 365.277 131.568C365.253 133.248 365.241 134.52 365.241 135.384C365.241 137.448 365.445 139.2 365.853 140.64C364.821 140.952 363.777 141.108 362.721 141.108C360.801 141.108 359.841 140.376 359.841 138.912C359.841 138.048 359.877 136.464 359.949 134.16C360.021 131.832 360.057 130.428 360.057 129.948C360.057 128.964 359.853 128.232 359.445 127.752C359.061 127.248 358.557 126.996 357.933 126.996C356.925 126.996 355.809 127.584 354.585 128.76C354.633 131.832 354.657 134.052 354.657 135.42C354.657 137.532 354.717 139.38 354.837 140.964C354.045 141.036 353.337 141.072 352.713 141.072C350.313 141.072 349.113 140.496 349.113 139.344C349.113 139.248 349.137 138.42 349.185 136.86C349.257 135.276 349.293 133.632 349.293 131.928V123.144C349.293 119.712 349.209 116.904 349.041 114.72C349.953 114.408 350.925 114.252 351.957 114.252ZM377.37 123.54C379.146 123.54 380.682 123.984 381.978 124.872C383.274 125.76 383.922 127.08 383.922 128.832C383.922 132.384 381.378 134.16 376.29 134.16C375.834 134.16 375.006 134.136 373.806 134.088C373.806 135.456 374.142 136.452 374.814 137.076C375.51 137.7 376.362 138.012 377.37 138.012C379.146 138.012 380.526 137.436 381.51 136.284C382.062 136.548 382.506 136.908 382.842 137.364C383.202 137.796 383.382 138.24 383.382 138.696C383.382 139.416 382.95 139.992 382.086 140.424C381.246 140.856 380.418 141.12 379.602 141.216C378.81 141.312 378.042 141.36 377.298 141.36C374.658 141.36 372.498 140.64 370.818 139.2C369.138 137.736 368.298 135.516 368.298 132.54C368.298 130.572 368.754 128.892 369.666 127.5C370.602 126.084 371.73 125.076 373.05 124.476C374.394 123.852 375.834 123.54 377.37 123.54ZM377.082 126.96C376.218 126.96 375.462 127.356 374.814 128.148C374.166 128.916 373.83 130.056 373.806 131.568C374.478 131.52 374.946 131.484 375.21 131.46C375.498 131.412 375.894 131.328 376.398 131.208C376.926 131.088 377.298 130.932 377.514 130.74C377.754 130.524 377.97 130.236 378.162 129.876C378.354 129.492 378.45 129.024 378.45 128.472C378.45 128.088 378.318 127.74 378.054 127.428C377.79 127.116 377.466 126.96 377.082 126.96ZM386.017 132.468C386.017 129.996 386.701 127.896 388.069 126.168C389.437 124.416 391.141 123.54 393.181 123.54C394.525 123.54 395.881 123.948 397.249 124.764C397.297 123.228 397.321 122.016 397.321 121.128C397.321 118.512 397.225 116.376 397.033 114.72C398.137 114.408 398.941 114.252 399.445 114.252C401.677 114.252 402.793 115.02 402.793 116.556C402.793 117.972 402.733 120.696 402.613 124.728C402.517 128.76 402.469 131.508 402.469 132.972C402.469 136.764 402.697 139.38 403.153 140.82C402.001 141.108 401.065 141.252 400.345 141.252C399.337 141.252 398.617 141.072 398.185 140.712C397.753 140.328 397.465 139.812 397.321 139.164C396.697 139.812 395.965 140.34 395.125 140.748C394.309 141.156 393.529 141.36 392.785 141.36C390.937 141.36 389.341 140.52 387.997 138.84C386.677 137.16 386.017 135.036 386.017 132.468ZM397.105 127.752C396.385 127.224 395.641 126.96 394.873 126.96C393.793 126.96 392.941 127.44 392.317 128.4C391.693 129.336 391.381 130.584 391.381 132.144C391.381 133.872 391.693 135.3 392.317 136.428C392.941 137.532 393.709 138.084 394.621 138.084C395.677 138.084 396.529 137.724 397.177 137.004C397.129 132.06 397.105 128.976 397.105 127.752ZM423.059 140.64C421.883 140.952 420.875 141.108 420.035 141.108C419.267 141.108 418.607 140.94 418.055 140.604C417.527 140.244 417.239 139.728 417.191 139.056C415.439 140.592 413.543 141.36 411.503 141.36C408.119 141.36 406.427 139.668 406.427 136.284C406.427 136.212 406.439 135.336 406.463 133.656C406.511 131.976 406.535 130.716 406.535 129.876C406.535 127.38 406.343 125.508 405.959 124.26C406.895 123.948 407.867 123.792 408.875 123.792C410.939 123.792 411.971 124.524 411.971 125.988C411.971 126.78 411.935 128.256 411.863 130.416C411.791 132.576 411.755 133.872 411.755 134.304C411.755 135.456 411.935 136.344 412.295 136.968C412.679 137.592 413.147 137.904 413.699 137.904C414.923 137.904 416.063 137.34 417.119 136.212C417.095 135.276 417.083 133.824 417.083 131.856C417.083 129.072 416.999 126.54 416.831 124.26C417.791 123.948 418.715 123.792 419.603 123.792C420.563 123.792 421.307 123.936 421.835 124.224C422.363 124.512 422.627 125.112 422.627 126.024C422.627 126.264 422.591 126.996 422.519 128.22C422.471 129.444 422.435 130.404 422.411 131.1V133.692C422.411 136.74 422.627 139.056 423.059 140.64ZM428.773 114.252C429.685 114.252 430.393 114.408 430.897 114.72C431.401 115.032 431.653 115.644 431.653 116.556C431.653 116.7 431.605 117.756 431.509 119.724C431.437 121.692 431.401 123.168 431.401 124.152V134.016C431.401 137.184 431.605 139.392 432.013 140.64C431.005 140.952 430.009 141.108 429.025 141.108C427.897 141.108 427.105 140.916 426.649 140.532C426.217 140.124 426.001 139.536 426.001 138.768C426.001 138.384 426.013 137.544 426.037 136.248C426.085 134.952 426.109 133.896 426.109 133.08V123.144C426.109 119.712 426.025 116.904 425.857 114.72C426.769 114.408 427.741 114.252 428.773 114.252ZM443.534 123.54C445.31 123.54 446.846 123.984 448.142 124.872C449.438 125.76 450.086 127.08 450.086 128.832C450.086 132.384 447.542 134.16 442.454 134.16C441.998 134.16 441.17 134.136 439.97 134.088C439.97 135.456 440.306 136.452 440.978 137.076C441.674 137.7 442.526 138.012 443.534 138.012C445.31 138.012 446.69 137.436 447.674 136.284C448.226 136.548 448.67 136.908 449.006 137.364C449.366 137.796 449.546 138.24 449.546 138.696C449.546 139.416 449.114 139.992 448.25 140.424C447.41 140.856 446.582 141.12 445.766 141.216C444.974 141.312 444.206 141.36 443.462 141.36C440.822 141.36 438.662 140.64 436.982 139.2C435.302 137.736 434.462 135.516 434.462 132.54C434.462 130.572 434.918 128.892 435.83 127.5C436.766 126.084 437.894 125.076 439.214 124.476C440.558 123.852 441.998 123.54 443.534 123.54ZM443.246 126.96C442.382 126.96 441.626 127.356 440.978 128.148C440.33 128.916 439.994 130.056 439.97 131.568C440.642 131.52 441.11 131.484 441.374 131.46C441.662 131.412 442.058 131.328 442.562 131.208C443.09 131.088 443.462 130.932 443.678 130.74C443.918 130.524 444.134 130.236 444.326 129.876C444.518 129.492 444.614 129.024 444.614 128.472C444.614 128.088 444.482 127.74 444.218 127.428C443.954 127.116 443.63 126.96 443.246 126.96Z" fill="#00FFFF"/>
<circle cx="493" cy="405" r="50" fill="#00FFFF" fill-opacity="0.09"/>
<ellipse cx="493" cy="404.648" rx="40.1408" ry="39.7887" fill="#00FFFF" fill-opacity="0.06"/>
<path d="M511.31 405H474.69" stroke="#1DFCFC" stroke-width="5" stroke-linecap="round" stroke-linejoin="round"/>
<path d="M493 385.986V423.31" stroke="#1DFCFC" stroke-width="5" stroke-linecap="round" stroke-linejoin="round"/>
</svg>
